<svg version="1.1" viewBox="0.0 0.0 960.0 720.0" fill="none" stroke="none" stroke-linecap="square" stroke-miterlimit="10" xmlns:xlink="http://www.w3.org/1999/xlink" xmlns="http://www.w3.org/2000/svg"><clipPath id="p.0"><path d="m0 0l960.0 0l0 720.0l-960.0 0l0 -720.0z" clip-rule="nonzero"/></clipPath><g clip-path="url(#p.0)"><path fill="#000000" fill-opacity="0.0" d="m0 0l960.0 0l0 720.0l-960.0 0z" fill-rule="evenodd"/><path fill="#000000" fill-opacity="0.0" d="m187.41733 272.74014l585.1654 0l0 174.51971l-585.1654 0z" fill-rule="evenodd"/><path fill="#36c79e" d="m241.9277 320.26077l-9.609375 -1.78125l0 -8.96875l43.65625 0l0 8.96875l-12.171875 1.78125l0 74.375l24.0625 -1.28125l8.328125 -25.34375l12.03125 1.53125l-3.71875 35.078125l-72.4375 0l0 -8.453125l9.859375 -1.28125l0 -74.625zm71.28238 63.875q0 -11.265625 11.453125 -17.28125q11.46875 -6.015625 30.15625 -6.140625l0 -2.5625q0 -4.609375 -1.03125 -7.296875q-1.015625 -2.6875 -3.703125 -4.03125q-2.6875 -1.34375 -7.9375 -1.34375q-6.28125 0 -11.203125 1.484375q-4.921875 1.46875 -10.296875 3.890625l-4.359375 -9.203125q2.046875 -1.671875 6.65625 -4.03125q4.609375 -2.375 11.0625 -4.09375q6.46875 -1.734375 13.515625 -1.734375q10.234375 0 16.0625 2.6875q5.828125 2.6875 8.3125 8.328125q2.5 5.625 2.5 15.34375l0 38.015625l6.65625 0l0 8.0625q-2.9375 0.640625 -8.1875 1.28125q-5.25 0.640625 -8.96875 0.640625q-4.859375 0 -6.46875 -1.40625q-1.59375 -1.40625 -1.59375 -5.625l0 -2.953125q-3.1875 3.84375 -8.578125 6.859375q-5.375 3.0 -12.40625 3.0q-6.015625 0 -10.953125 -2.625q-4.921875 -2.625 -7.8125 -7.546875q-2.875 -4.9375 -2.875 -11.71875zm31.625 10.109375q2.296875 0 5.109375 -1.34375q2.828125 -1.34375 4.875 -3.25l0 -20.359375q-9.984375 0 -14.796875 3.59375q-4.796875 3.578125 -4.796875 9.203125q0 5.765625 2.5625 8.96875q2.5625 3.1875 7.046875 3.1875zm50.303772 -47.359375l-7.5625 -2.296875l0 -9.984375l23.296875 -2.8125l0.390625 0l3.328125 2.6875l0 4.734375l-0.125 2.9375q4.484375 -4.21875 11.390625 -7.15625q6.90625 -2.953125 14.46875 -2.953125q7.671875 0 12.078125 2.75q4.421875 2.75 6.40625 8.765625q1.984375 6.015625 1.984375 16.390625l0 35.078125l7.171875 1.015625l0 8.578125l-34.8125 0l0 -8.453125l6.265625 -1.140625l0 -34.953125q0 -6.140625 -0.828125 -9.53125q-0.828125 -3.390625 -2.875 -4.921875q-2.046875 -1.546875 -5.890625 -1.546875q-5.890625 0 -13.3125 5.5l0 45.453125l7.03125 1.140625l0 8.453125l-35.453125 0l0 -8.453125l7.046875 -1.140625l0 -48.140625zm112.88553 92.296875q-17.65625 0 -25.53125 -5.515625q-7.875 -5.5 -7.875 -14.703125q0 -5.125 3.453125 -9.734375q3.46875 -4.609375 8.71875 -6.90625q-6.015625 -3.46875 -6.015625 -11.015625q0 -4.09375 2.8125 -8.0q2.8125 -3.90625 7.546875 -5.953125q-14.203125 -5.25 -14.203125 -21.765625q0 -7.28125 4.34375 -12.71875q4.359375 -5.453125 11.78125 -8.328125q7.421875 -2.875 16.390625 -2.875q15.9999695 0 23.421844 5.875q1.78125 -2.171875 5.625 -4.15625q3.84375 -1.984375 7.9375 -1.984375l4.609375 0l0 15.625l-12.671875 0q1.28125 3.578125 1.28125 7.296875q0 11.765625 -8.328125 18.6875q-8.3125 6.90625 -23.671844 6.90625q-6.265625 0 -10.375 -0.890625q-0.765625 1.53125 -1.21875 3.203125q-0.4375 1.65625 -0.4375 2.671875q0 3.96875 2.9375 5.453125q2.953125 1.46875 10.75 1.46875l13.1874695 0q27.015625 0 27.015625 19.328125q0 8.4375 -5.890625 14.84375q-5.890625 6.40625 -15.4375 9.796875q-9.53125 3.390625 -20.15622 3.390625zm0.90625 -67.96875q5.3749695 0 7.7343445 -4.03125q2.375 -4.03125 2.375 -11.59375q0 -8.1875 -2.4375 -11.890625q-2.421875 -3.71875 -7.7968445 -3.71875q-10.890625 0 -10.890625 15.109375q0 16.125 11.015625 16.125zm1.53125 58.359375q7.0468445 0 12.0312195 -3.71875q5.0 -3.703125 5.0 -10.484375q0 -5.375 -2.6875 -7.625q-2.6875 -2.234375 -9.484375 -2.234375l-13.0468445 0q-2.046875 0 -4.609375 -0.25q-2.4375 3.96875 -2.4375 9.859375q0 14.453125 15.234375 14.453125zm52.486725 -117.375l-8.703125 -1.65625l0 -7.8125l25.46875 -3.0625l0.375 0l3.71875 2.6875l0 59.765625l-0.390625 6.28125l24.078125 -25.34375l-9.484375 -1.40625l0 -8.078125l34.828125 0l0 8.078125l-10.5 1.65625l-13.828125 13.1875l21.125 38.53125l6.65625 1.140625l0 8.453125l-35.59375 0l0 -8.453125l5.765625 -1.140625l-12.671875 -25.34375l-10.375 10.75l0.265625 6.53125l0 8.0625l7.421875 1.140625l0 8.453125l-35.203125 0l0 -8.453125l7.046875 -1.140625l0 -82.828125zm92.65979 10.25q-4.984375 0 -8.0625 -2.9375q-3.0625 -2.953125 -3.0625 -7.5625q0 -5.375 3.390625 -8.828125q3.390625 -3.453125 9.15625 -3.453125q5.75 0 8.8125 2.9375q3.078125 2.9375 3.078125 7.546875q0 5.515625 -3.453125 8.90625q-3.453125 3.390625 -9.71875 3.390625l-0.140625 0zm-7.796875 24.4375l-8.578125 -2.421875l0 -9.609375l25.59375 -3.0625l0.265625 0l3.96875 2.6875l0 60.546875l7.671875 1.140625l0 8.453125l-36.859375 0l0 -8.453125l7.9375 -1.140625l0 -48.140625zm59.39612 58.890625q-8.453125 0 -12.484375 -3.90625q-4.03125 -3.90625 -4.03125 -12.09375l0 -45.578125l-7.8125 0l0 -7.421875l2.5625 -1.015625q3.0625 -1.03125 5.375 -2.1875q2.5625 -2.421875 4.09375 -6.390625q1.921875 -4.609375 4.21875 -12.9375l11.90625 0l0.765625 19.203125l18.3125 0l0 10.75l-18.046875 0l0 33.921875q0 7.046875 0.375 9.859375q0.390625 2.8125 1.46875 3.65625q1.09375 0.828125 4.046875 0.828125q6.015625 0 11.390625 -2.046875l2.6875 8.0625q-3.59375 2.9375 -10.640625 5.125q-7.03125 2.171875 -14.1875 2.171875z" fill-rule="nonzero"/></g></svg>